<svg xmlns="http://www.w3.org/2000/svg" xmlns:xlink="http://www.w3.org/1999/xlink" width="222.25983" height="57.50323" viewBox="0 0 222.25983 57.50323"><defs><style>.b880920b-de87-4baa-8c96-ef2774f548d6{fill:#fff;}.a54731e6-5818-413d-b338-8c84e4007655{fill:url(#b04c6bc9-8f10-4ae2-b27d-208982dc2be1);}.ad0a170e-16ea-49d2-b732-acd7f7f1c81f{fill:url(#bcb45a2d-eb7d-4564-ada1-a86b6f222f3f);}.fe0729b4-5956-43da-aac6-0b8775beb903{fill:url(#e4f95c41-ce35-4cca-964d-86954512a5c3);}.e25c7ebf-1445-44b4-bd1a-90036cc9cd8d{fill:url(#bb914206-5562-4195-ba97-8b367c6101bf);}.aa89b18c-d4ef-4e7d-835f-f1ba22ce6d25{fill:url(#be250ae3-d550-4b56-9e25-a9095fa7a48d);}.e2141a56-c32e-4a26-8c65-082c581ef065{fill:url(#aa356faa-46ce-4c1c-a08d-d18cfe647e2f);}.a255117b-3ca0-4693-bb89-49ba01bf4ff9{fill:url(#b80ef445-9db2-4b87-a352-4822daea37a8);}.baa6b371-378c-44ae-a693-16a8e24d7517{fill:url(#fd61fbf2-7c64-481b-b885-46940c04259d);}.fceaa1ab-5ec6-496d-b014-8ccaa05f13ad{fill:url(#fdbf5ad1-c8c2-4d67-91a8-7c215de92baf);}</style><linearGradient id="b04c6bc9-8f10-4ae2-b27d-208982dc2be1" x1="60.01567" y1="46.14844" x2="10.01826" y2="4.20307" gradientUnits="userSpaceOnUse"><stop offset="0" stop-color="#b46642"/><stop offset="0.2973" stop-color="#ef9a3f"/><stop offset="1" stop-color="#f5ec45"/></linearGradient><linearGradient id="bcb45a2d-eb7d-4564-ada1-a86b6f222f3f" x1="55.53025" y1="35.58608" x2="73.88138" y2="15.17516" gradientUnits="userSpaceOnUse"><stop offset="0" stop-color="#f5ec45"/><stop offset="1" stop-color="#ef9a3f"/></linearGradient><linearGradient id="e4f95c41-ce35-4cca-964d-86954512a5c3" x1="70.44466" y1="33.09963" x2="41.60724" y2="-0.23197" xlink:href="#bcb45a2d-eb7d-4564-ada1-a86b6f222f3f"/><linearGradient id="bb914206-5562-4195-ba97-8b367c6101bf" x1="51.84384" y1="6.94751" x2="29.37304" y2="9.56909" xlink:href="#bcb45a2d-eb7d-4564-ada1-a86b6f222f3f"/><linearGradient id="be250ae3-d550-4b56-9e25-a9095fa7a48d" x1="26.00788" y1="11.42246" x2="45.10795" y2="-6.36685" xlink:href="#bcb45a2d-eb7d-4564-ada1-a86b6f222f3f"/><linearGradient id="aa356faa-46ce-4c1c-a08d-d18cfe647e2f" x1="33.25356" y1="29.51489" x2="-9.25353" y2="29.51489" gradientUnits="userSpaceOnUse"><stop offset="0" stop-color="#ef9a3f"/><stop offset="1" stop-color="#f5ec45"/></linearGradient><linearGradient id="b80ef445-9db2-4b87-a352-4822daea37a8" x1="5.64242" y1="24.47178" x2="39.1613" y2="56.11807" xlink:href="#bcb45a2d-eb7d-4564-ada1-a86b6f222f3f"/><linearGradient id="fd61fbf2-7c64-481b-b885-46940c04259d" x1="25.58908" y1="49.25658" x2="49.55793" y2="50.75463" xlink:href="#bcb45a2d-eb7d-4564-ada1-a86b6f222f3f"/><linearGradient id="fdbf5ad1-c8c2-4d67-91a8-7c215de92baf" x1="51.52423" y1="45.65078" x2="33.92219" y2="77.48428" xlink:href="#bcb45a2d-eb7d-4564-ada1-a86b6f222f3f"/></defs><g id="b685b0f9-97d9-4dbc-bc3a-78494adf8050" data-name="Layer 2"><g id="e3273e4b-2404-4890-ba2b-b822c5d5c0fd" data-name="Слой 1"><path class="b880920b-de87-4baa-8c96-ef2774f548d6" d="M99.87945,45.13379a24.402,24.402,0,0,1-3.98779-1.293l.51709-7.5459h4.915l.51758,3.665a9.92587,9.92587,0,0,0,2.30664.84082,13.46325,13.46325,0,0,0,3.29834.36621,4.64676,4.64676,0,0,0,2.93164-.96972,3.21858,3.21858,0,0,0,1.25049-2.69434,2.9408,2.9408,0,0,0-.73291-2.13477,8.99589,8.99589,0,0,0-2.67334-1.61621l-4.82862-2.07031A14.4,14.4,0,0,1,98.15485,28.168a7.43183,7.43183,0,0,1-1.7461-5.06543,8.042,8.042,0,0,1,1.40137-4.61328,9.751,9.751,0,0,1,3.94482-3.29883,13.32142,13.32142,0,0,1,5.86377-1.22852,27.34608,27.34608,0,0,1,4.67774.36622q2.09106.36767,4.72119.9707l-.60352,7.11328h-4.6997l-.64649-3.27637a7.20535,7.20535,0,0,0-1.66016-.49609,10.46272,10.46272,0,0,0-1.96142-.19336,5.35682,5.35682,0,0,0-3.42774.92676,3.16925,3.16925,0,0,0-1.14257,2.6084,3.426,3.426,0,0,0,.92675,2.501,10.5323,10.5323,0,0,0,3.126,1.93946l4.48389,1.94042a13.77916,13.77916,0,0,1,5.02295,3.38477,6.60905,6.60905,0,0,1,1.53076,4.376,8.77622,8.77622,0,0,1-1.50928,5.08789,9.82751,9.82751,0,0,1-4.20361,3.40527,15.11,15.11,0,0,1-6.23,1.207A24.84661,24.84661,0,0,1,99.87945,45.13379Z"/><path class="b880920b-de87-4baa-8c96-ef2774f548d6" d="M140.127,24.39551V27.8877l-1.07763.25878a1.34979,1.34979,0,0,0-.94873.53907,7.93153,7.93153,0,0,0-.60352,1.31543l-5.34619,15.3916h-5.34619l-6.68311-15.82324a3.73692,3.73692,0,0,0-.625-1.05664,1.92054,1.92054,0,0,0-1.01318-.40918l-.81934-.21582V24.39551H128.2276V27.8877l-1.55225.25878a.73568.73568,0,0,0-.40966.19434.45222.45222,0,0,0-.15088.32324,4.10577,4.10577,0,0,0,.25879,1.1211l3.44921,8.88183,2.67286-8.88183a3.24493,3.24493,0,0,1,.15087-.56055,1.68735,1.68735,0,0,0,.10791-.56055.49917.49917,0,0,0-.15087-.30176.47368.47368,0,0,0-.3667-.17285l-1.50879-.30175V24.39551Z"/><path class="b880920b-de87-4baa-8c96-ef2774f548d6" d="M159.22711,40.34863l.90527,3.49219a34.1263,34.1263,0,0,1-5.30322,1.53027,24.58758,24.58758,0,0,1-4.61328.45215,8.65062,8.65062,0,0,1-6.8335-2.80176,10.97222,10.97222,0,0,1-2.479-7.54492,13.34952,13.34952,0,0,1,1.31494-6.123,9.35806,9.35806,0,0,1,3.77246-3.98731,11.46051,11.46051,0,0,1,5.77735-1.40137q4.52709,0,6.46728,2.71582t1.93994,8.752l-13.06347.99218q.38745,5.17383,5.04443,5.17383A28.10925,28.10925,0,0,0,159.22711,40.34863ZM148.14654,29.16016a6.637,6.637,0,0,0-1.12109,3.64257l7.50195-.73242q-.12963-3.88036-3.49218-3.88086A3.70016,3.70016,0,0,0,148.14654,29.16016Z"/><path class="b880920b-de87-4baa-8c96-ef2774f548d6" d="M175.39459,41.25391l-.47412,3.62109a10.79,10.79,0,0,1-4.8291.94824q-3.57935,0-4.915-1.78906a9.09986,9.09986,0,0,1-1.33643-5.4541V28.2334h-2.28515V24.82715l2.28515-.30176V21.291l5.86377-1.33594v4.26855l5.04444-.43164V28.2334h-5.04444V38.7959a2.836,2.836,0,0,0,.7544,2.2207,2.6656,2.6656,0,0,0,1.83252.668A11.88858,11.88858,0,0,0,175.39459,41.25391Z"/><path class="b880920b-de87-4baa-8c96-ef2774f548d6" d="M195.35651,40.34863l.90527,3.49219a34.12692,34.12692,0,0,1-5.30322,1.53027,24.58768,24.58768,0,0,1-4.61329.45215,8.65059,8.65059,0,0,1-6.83349-2.80176,10.97223,10.97223,0,0,1-2.479-7.54492,13.34939,13.34939,0,0,1,1.315-6.123,9.358,9.358,0,0,1,3.77246-3.98731,11.46044,11.46044,0,0,1,5.77734-1.40137q4.52711,0,6.46729,2.71582t1.93994,8.752l-13.06348.99218q.38745,5.17383,5.04443,5.17383A28.10932,28.10932,0,0,0,195.35651,40.34863ZM184.27594,29.16016a6.6369,6.6369,0,0,0-1.12109,3.64257l7.50195-.73242q-.12965-3.88036-3.49219-3.88086A3.70015,3.70015,0,0,0,184.27594,29.16016Z"/><path class="b880920b-de87-4baa-8c96-ef2774f548d6" d="M222.25983,40.7793l-.81934,4.35449a8.555,8.555,0,0,1-3.14746.68945,6.43029,6.43029,0,0,1-5.562-3.14648l-5.99268-8.75293v6.59668a1.10665,1.10665,0,0,0,.19385.71191,1.13719,1.13719,0,0,0,.71142.32324l1.72461.25879v3.57813H198.41705V41.85742l1.50928-.30176q.94776-.30176.94824-1.03515V16.63477a.93107.93107,0,0,0-.25879-.68946,1.31058,1.31058,0,0,0-.68945-.34472l-1.50928-.25879V11.7627h8.32129V32.544l5.648-5.77735a8.25673,8.25673,0,0,1,2.6084-1.89648,7.45459,7.45459,0,0,1,2.78076-.47461h2.501v3.88086h-1.20752a4.185,4.185,0,0,0-1.68115.30176,6.23872,6.23872,0,0,0-1.46582.94824q-3.10474,2.93262-3.708,3.44922l4.61328,6.03613A4.2872,4.2872,0,0,0,220.19,41.124,4.80061,4.80061,0,0,0,222.25983,40.7793Z"/><path class="a54731e6-5818-413d-b338-8c84e4007655" d="M78.06926,31.30049l-3.83781,2.99636L68.052,37.43339l-8.70738-2.94927-7.6424-3.79194L47.71768,27.7003l-3.02586-2.9535-4.3286-3.24416C34.50231,16.899,26.66062,11.6901,17.71585,11.6901,3.72952,11.6901.48925,26.20271.48925,26.20271l3.8378-2.99636,6.17945-3.13654,8.70742,2.94928L26.85631,26.811l3.98451,2.9919,3.02589,2.95348,4.32846,3.2441c5.86091,4.60368,13.70263,9.8126,22.64749,9.8126C75.99479,45.81311,78.06926,31.30049,78.06926,31.30049Z"/><path class="ad0a170e-16ea-49d2-b732-acd7f7f1c81f" d="M74.38751,16.25785s8.86346,10.92328.749,20.41091S50.013,31.05108,44.69179,24.7468c0,0,12.12486,12.31209,23.61814,9.46566l4.42348-3.53588,2.80884-5.64888-.62417-4.74384Z"/><path class="fe0729b4-5956-43da-aac6-0b8775beb903" d="M44.69179,24.7468S59.11052,38.74419,66.92847,32.237,64.21326,12.34107,51.948,15.384l-.46813-2.07152-3.01951-6.6827-5.50064-3.394L39.00389.87162,37.12354.21625A19.31378,19.31378,0,0,1,56.06762,8.596s12.078-.078,18.31989,7.66189.43694,16.3086-4.9935,17.70435S56.37971,35.29555,44.69179,24.7468Z"/><path class="e25c7ebf-1445-44b4-bd1a-90036cc9cd8d" d="M51.948,15.384S51.6515-.81368,37.12354.21625l-.41492.09326L34.896.82482,31.92328,2.58035,29.3134,5.27216l-.79584,3.04291.91287,3.13654.3901,1.12353S41.83615-3.90339,51.948,15.384Z"/><path class="aa89b18c-d4ef-4e7d-835f-f1ba22ce6d25" d="M24.39012,10.26567A16.65133,16.65133,0,0,1,37.12354.21625s-9.238,1.935-7.303,12.35889Z"/><path class="e2141a56-c32e-4a26-8c65-082c581ef065" d="M4.171,41.24536S-4.69246,30.3221,3.422,20.83445s25.12354,5.61768,30.44472,11.922c0,0-12.12482-12.31209-23.6181-9.46567L5.82509,26.82663,3.01625,32.47554l.62417,4.74381Z"/><path class="a255117b-3ca0-4693-bb89-49ba01bf4ff9" d="M33.86668,32.75641S19.448,18.759,11.63,25.26619s2.7152,19.89594,14.98049,16.853l.46813,2.07152,3.01951,6.6827,5.50064,3.394,3.95578,2.3641,1.88037.6554a19.31372,19.31372,0,0,1-18.94407-8.37971s-12.078.078-18.3199-7.66191S3.73406,24.93679,9.1645,23.541,22.17879,22.20765,33.86668,32.75641Z"/><path class="baa6b371-378c-44ae-a693-16a8e24d7517" d="M26.61053,42.11922S26.907,58.31689,41.435,57.287l.41489-.09326,1.81269-.51534,2.97268-1.75553,2.60989-2.69178.79583-3.04293-.91287-3.13654-.3901-1.12354S36.72235,61.4066,26.61053,42.11922Z"/><path class="fceaa1ab-5ec6-496d-b014-8ccaa05f13ad" d="M54.16838,47.23756A16.65137,16.65137,0,0,1,41.435,57.287s9.238-1.935,7.303-12.35892Z"/></g></g></svg>