<?xml version="1.0" encoding="utf-8"?>
<svg version="1.1" viewBox="0 0 30 30" xmlns="http://www.w3.org/2000/svg">
  <g id="b685b0f9-97d9-4dbc-bc3a-78494adf8050" data-name="Layer 2" style="" transform="matrix(0.360276, 0, 0, 0.360276, 0.80729, 5.150785)">
    <g id="e3273e4b-2404-4890-ba2b-b822c5d5c0fd" data-name="Слой 1">
      <path class="a54731e6-5818-413d-b338-8c84e4007655" d="M78.06926,31.30049l-3.83781,2.99636L68.052,37.43339l-8.70738-2.94927-7.6424-3.79194L47.71768,27.7003l-3.02586-2.9535-4.3286-3.24416C34.50231,16.899,26.66062,11.6901,17.71585,11.6901,3.72952,11.6901.48925,26.20271.48925,26.20271l3.8378-2.99636,6.17945-3.13654,8.70742,2.94928L26.85631,26.811l3.98451,2.9919,3.02589,2.95348,4.32846,3.2441c5.86091,4.60368,13.70263,9.8126,22.64749,9.8126C75.99479,45.81311,78.06926,31.30049,78.06926,31.30049Z" style="fill: rgb(255, 255, 255);"/>
      <path class="ad0a170e-16ea-49d2-b732-acd7f7f1c81f" d="M74.38751,16.25785s8.86346,10.92328.749,20.41091S50.013,31.05108,44.69179,24.7468c0,0,12.12486,12.31209,23.61814,9.46566l4.42348-3.53588,2.80884-5.64888-.62417-4.74384Z" style="fill: rgb(255, 255, 255);"/>
      <path class="fe0729b4-5956-43da-aac6-0b8775beb903" d="M44.69179,24.7468S59.11052,38.74419,66.92847,32.237,64.21326,12.34107,51.948,15.384l-.46813-2.07152-3.01951-6.6827-5.50064-3.394L39.00389.87162,37.12354.21625A19.31378,19.31378,0,0,1,56.06762,8.596s12.078-.078,18.31989,7.66189.43694,16.3086-4.9935,17.70435S56.37971,35.29555,44.69179,24.7468Z" style="fill: rgb(255, 255, 255);"/>
      <path class="e25c7ebf-1445-44b4-bd1a-90036cc9cd8d" d="M51.948,15.384S51.6515-.81368,37.12354.21625l-.41492.09326L34.896.82482,31.92328,2.58035,29.3134,5.27216l-.79584,3.04291.91287,3.13654.3901,1.12353S41.83615-3.90339,51.948,15.384Z" style="fill: rgb(255, 255, 255);"/>
      <path class="aa89b18c-d4ef-4e7d-835f-f1ba22ce6d25" d="M24.39012,10.26567A16.65133,16.65133,0,0,1,37.12354.21625s-9.238,1.935-7.303,12.35889Z" style="fill: rgb(255, 255, 255);"/>
      <path class="e2141a56-c32e-4a26-8c65-082c581ef065" d="M4.171,41.24536S-4.69246,30.3221,3.422,20.83445s25.12354,5.61768,30.44472,11.922c0,0-12.12482-12.31209-23.6181-9.46567L5.82509,26.82663,3.01625,32.47554l.62417,4.74381Z" style="fill: rgb(255, 255, 255);"/>
      <path class="a255117b-3ca0-4693-bb89-49ba01bf4ff9" d="M33.86668,32.75641S19.448,18.759,11.63,25.26619s2.7152,19.89594,14.98049,16.853l.46813,2.07152,3.01951,6.6827,5.50064,3.394,3.95578,2.3641,1.88037.6554a19.31372,19.31372,0,0,1-18.94407-8.37971s-12.078.078-18.3199-7.66191S3.73406,24.93679,9.1645,23.541,22.17879,22.20765,33.86668,32.75641Z" style="fill: rgb(255, 255, 255);"/>
      <path class="baa6b371-378c-44ae-a693-16a8e24d7517" d="M26.61053,42.11922S26.907,58.31689,41.435,57.287l.41489-.09326,1.81269-.51534,2.97268-1.75553,2.60989-2.69178.79583-3.04293-.91287-3.13654-.3901-1.12354S36.72235,61.4066,26.61053,42.11922Z" style="fill: rgb(255, 255, 255);"/>
      <path class="fceaa1ab-5ec6-496d-b014-8ccaa05f13ad" d="M54.16838,47.23756A16.65137,16.65137,0,0,1,41.435,57.287s9.238-1.935,7.303-12.35892Z" style="fill: rgb(255, 255, 255);"/>
    </g>
  </g>
</svg>